<svg width="26" height="30" viewBox="0 0 26 30" fill="none" xmlns="http://www.w3.org/2000/svg">
<path d="M21.4286 10H24.2857C24.6646 10 25.028 10.1505 25.2959 10.4184C25.5638 10.6863 25.7143 11.0497 25.7143 11.4286V28.5714C25.7143 28.9503 25.5638 29.3137 25.2959 29.5816C25.028 29.8495 24.6646 30 24.2857 30H1.42857C1.04969 30 0.686328 29.8495 0.418419 29.5816C0.15051 29.3137 0 28.9503 0 28.5714V11.4286C0 11.0497 0.15051 10.6863 0.418419 10.4184C0.686328 10.1505 1.04969 10 1.42857 10H4.28571V8.57143C4.28571 6.29814 5.18877 4.11797 6.79623 2.51051C8.40368 0.903059 10.5839 0 12.8571 0C15.1304 0 17.3106 0.903059 18.9181 2.51051C20.5255 4.11797 21.4286 6.29814 21.4286 8.57143V10ZM18.5714 10V8.57143C18.5714 7.05591 17.9694 5.60245 16.8978 4.53082C15.8261 3.45918 14.3727 2.85714 12.8571 2.85714C11.3416 2.85714 9.88817 3.45918 8.81653 4.53082C7.7449 5.60245 7.14286 7.05591 7.14286 8.57143V10H18.5714ZM11.4286 18.5714V21.4286H14.2857V18.5714H11.4286ZM5.71429 18.5714V21.4286H8.57143V18.5714H5.71429ZM17.1429 18.5714V21.4286H20V18.5714H17.1429Z" fill="#93939B"/>
</svg>
